<svg xmlns="http://www.w3.org/2000/svg" width="128" height="128" viewBox="0 0 128 128">
  <defs>
    <radialGradient id="fireGrad" cx="50%" cy="50%" r="50%">
      <stop offset="0%" stop-color="#FF6B35" />
      <stop offset="100%" stop-color="#C92D39" />
    </radialGradient>
  </defs>
  <!-- Background circle -->
  <circle cx="64" cy="64" r="60" fill="url(#fireGrad)" />
  <!-- Flame shape -->
  <path d="M 64 100 Q 50 80 50 60 Q 50 50 55 45 Q 50 40 52 30 Q 60 35 64 40 Q 68 35 76 30 Q 78 40 73 45 Q 78 50 78 60 Q 78 80 64 100 Z" fill="#FFD15C" />
  <path d="M 64 90 Q 55 75 55 60 Q 55 55 58 52 Q 55 50 56 45 Q 61 48 64 50 Q 67 48 72 45 Q 73 50 70 52 Q 73 55 73 60 Q 73 75 64 90 Z" fill="#FF6B35" />
</svg>
